<?xml version="1.0" encoding="UTF-8" standalone="no"?>
<svg
   xmlns:dc="http://purl.org/dc/elements/1.1/"
   xmlns:cc="http://creativecommons.org/ns#"
   xmlns:rdf="http://www.w3.org/1999/02/22-rdf-syntax-ns#"
   xmlns:svg="http://www.w3.org/2000/svg"
   xmlns="http://www.w3.org/2000/svg"
   xmlns:sodipodi="http://sodipodi.sourceforge.net/DTD/sodipodi-0.dtd"
   xmlns:inkscape="http://www.inkscape.org/namespaces/inkscape"
   inkscape:version="1.0 (4035a4fb49, 2020-05-01)"
   sodipodi:docname="MiGROS_Logo.svg"
   id="svg2"
   height="234.92125"
   width="1098.4252"
   version="1.0">
  <metadata
     id="metadata8">
    <rdf:RDF>
      <cc:Work
         rdf:about="">
        <dc:format>image/svg+xml</dc:format>
        <dc:type
           rdf:resource="http://purl.org/dc/dcmitype/StillImage" />
      </cc:Work>
    </rdf:RDF>
  </metadata>
  <sodipodi:namedview
     inkscape:current-layer="svg2"
     inkscape:window-maximized="1"
     inkscape:window-y="-9"
     inkscape:window-x="-9"
     inkscape:cy="37.56034"
     inkscape:cx="921.10042"
     inkscape:zoom="2.1940502"
     showgrid="false"
     id="namedview6"
     inkscape:window-height="1001"
     inkscape:window-width="1920"
     inkscape:pageshadow="2"
     inkscape:pageopacity="0"
     guidetolerance="10"
     gridtolerance="10"
     objecttolerance="10"
     borderopacity="1"
     bordercolor="#666666"
     pagecolor="#ffffff" />
  <defs
     id="defs4" />
  <g
     id="layer1"
     transform="translate(-829.77515,801.94112)">
    <path
       id="path6837"
       style="fill:#f5821f;fill-rule:evenodd;stroke:none"
       d="M 1904.2409,-720.48799 C 1907.4294,-766.63372 1860.7678,-784.18601 1821.2571,-784.18601 C 1781.2098,-784.18601 1738.366,-770.24528 1736.2404,-724.89412 C 1736.2404,-704.20492 1746.9616,-684.59917 1766.3197,-676.10684 C 1807.9561,-657.81159 1851.4293,-661.79459 1851.4293,-638.3296 C 1851.4293,-618.88897 1833.5467,-615.94814 1821.3396,-615.94814 C 1802.2498,-615.94814 1788.9076,-631.71528 1789.1656,-649.74221 L 1734.414,-649.69061 C 1734.414,-598.34426 1776.1639,-584.77498 1820.7205,-584.77498 C 1865.0089,-584.77498 1910.4838,-603.15279 1910.4838,-643.45806 C 1910.4838,-695.17594 1858.5699,-700.52112 1826.4784,-708.74521 C 1812.4242,-712.4703 1794.8409,-715.62785 1794.2012,-729.66146 C 1793.8399,-737.73075 1798.2358,-749.09176 1817.6765,-749.09176 C 1826.695,-749.09176 1837.0139,-745.73812 1841.5232,-741.76535 C 1846.2905,-737.77203 1851.4705,-727.91751 1851.2022,-720.48799 L 1904.2409,-720.48799 z M 1082.9669,-781.00781 L 1137.6153,-781.00781 L 1137.6153,-748.35911 L 1082.9669,-748.35911 L 1082.9669,-781.00781 z M 1283.6058,-659.96817 C 1283.6058,-618.15633 1248.7592,-619.25018 1246.9327,-619.25018 C 1222.7145,-619.25018 1208.4126,-645.5012 1208.4126,-683.07196 C 1208.4126,-714.03871 1215.7493,-753.12637 1248.398,-753.12637 C 1265.1042,-753.12637 1279.9426,-740.28982 1279.21,-722.6653 L 1332.9607,-722.6653 C 1326.8829,-766.34476 1294.6159,-783.64944 1241.3503,-783.80424 C 1190.4476,-783.93832 1149.7295,-744.09746 1149.7295,-684.28965 C 1149.7295,-624.47144 1190.0761,-585.87915 1240.6899,-585.87915 C 1270.7692,-585.87915 1288.3731,-603.85448 1288.3731,-603.85448 L 1288.3731,-588.07702 C 1288.3731,-588.07702 1323.6118,-587.68494 1334.2299,-588.07702 L 1334.2299,-704.72085 L 1243.2593,-704.72085 L 1243.2593,-669.50276 L 1283.6058,-669.50276 L 1283.6058,-659.96817 z M 1669.1165,-683.44348 C 1669.1165,-655.35564 1663.3277,-615.22581 1629.5026,-615.22581 C 1595.6776,-615.22581 1590.9928,-654.97387 1590.9928,-683.07196 C 1590.9928,-712.74886 1596.049,-752.02227 1629.8741,-752.02227 C 1663.6992,-752.02227 1669.1165,-713.11007 1669.1165,-683.44348 z M 1630.0185,-585.39411 C 1689.4652,-585.39411 1725.2405,-621.67509 1725.2405,-684.17613 C 1725.2405,-746.66685 1689.4652,-782.84455 1630.0185,-782.84455 C 1570.5719,-782.84455 1535.23,-746.29533 1535.23,-683.8046 C 1535.23,-621.3242 1570.5719,-585.39411 1630.0185,-585.39411 z M 1082.9669,-736.95682 L 1137.5018,-736.95682 L 1137.5018,-588.44854 L 1082.9669,-588.44854 L 1082.9669,-736.95682 z M 892.35786,-587.93254 L 892.35786,-708.32209 L 920.96155,-587.93254 L 971.9571,-588.00478 L 999.82822,-718.95053 L 999.82822,-587.93254 L 1055.9419,-587.93254 L 1055.8181,-781.37933 L 967.78833,-781.37933 L 952.50615,-689.97532 L 933.30289,-781.37933 L 847.49166,-781.37933 L 847.49166,-587.93254 L 892.35786,-587.93254 z M 1409.0929,-706.46471 L 1409.0619,-744.69595 L 1431.753,-744.77851 C 1449.3981,-744.77851 1469.2102,-746.27469 1469.2102,-726.3491 C 1469.2102,-706.43375 1449.4394,-706.54727 1431.8046,-706.54727 L 1409.0929,-706.46471 z M 1409.0619,-671.3395 L 1430.9274,-671.42206 C 1456.2395,-671.42206 1467.0123,-672.07215 1467.3735,-651.53767 C 1467.0123,-589.17079 1468.1164,-644.20103 1467.3735,-588.07702 L 1521.671,-588.07702 L 1521.671,-658.86408 C 1519.5454,-670.8855 1524.4468,-690.04748 1488.6509,-690.04748 C 1508.463,-690.04748 1524.3746,-703.32779 1524.3746,-732.39589 C 1524.3746,-773.59892 1480.8189,-782.47311 1447.2002,-782.47311 L 1355.1358,-782.47311 L 1355.1358,-588.1183 L 1409.0619,-588.0151 L 1409.0619,-671.3395" />
  </g>
  <path
     id="path915"
     d="M 17.716875,117.21339 V 20.360546 h 42.93863 42.938625 l 0.20546,0.968528 c 0.11301,0.532691 4.40123,20.944775 9.5294,45.360188 5.12817,24.415412 9.37043,44.258848 9.42725,44.096528 0.0568,-0.16232 3.49379,-20.548767 7.6377,-45.303214 l 7.5344,-45.008086 h 44.09653 44.09653 l 0.0572,96.79587 0.0572,96.79587 h -28.14417 -28.14417 l -0.0574,-64.77206 -0.0574,-64.772053 -13.78394,64.772053 -13.78394,64.77206 h -25.55951 c -20.241302,0 -25.580727,-0.0593 -25.661472,-0.28486 -0.05608,-0.15668 -6.450794,-27.02075 -14.210475,-59.69795 l -14.108512,-59.413087 -0.0574,59.697947 -0.0574,59.69795 H 40.163517 17.716875 Z"
     style="fill:#ed6827;fill-opacity:1;stroke:#ffe4c4;stroke-width:0.227889" />
  <path
     id="path917"
     d="M 253.12625,37.224335 V 20.816324 h 27.46063 27.46063 v 16.408011 16.408011 h -27.46063 -27.46063 z"
     style="fill:#ed6827;fill-opacity:1;stroke:#ffe4c4;stroke-width:0.227889" />
  <path
     id="path919"
     d="M 253.12625,139.20468 V 64.798909 h 27.34669 27.34668 v 74.405771 74.40577 h -27.34668 -27.34669 z"
     style="fill:#ed6827;fill-opacity:1;stroke:#ffe4c4;stroke-width:0.227889" />
  <path
     id="path921"
     d="m 402.59948,215.9138 c -27.26029,-2.36722 -51.07767,-16.31985 -65.90269,-38.60691 -11.32378,-17.02349 -16.82218,-36.61049 -16.82048,-59.91973 0.003,-45.394523 23.81656,-81.703752 62.03825,-94.592768 13.12128,-4.42472 25.88643,-5.690831 43.9296,-4.357152 47.06551,3.478893 71.43714,22.312729 77.3849,59.801293 l 0.19886,1.25339 h -27.0556 -27.05559 l -0.008,-1.937057 c -0.014,-3.416809 -1.29113,-8.212729 -3.23975,-12.165597 -5.45718,-11.07021 -18.50184,-17.72966 -31.50876,-16.085594 -12.12075,1.532055 -20.37382,7.880547 -26.75713,20.582333 -8.02011,15.958769 -11.17589,46.285022 -7.26019,69.768622 1.76271,10.57145 5.47476,20.68525 10.20188,27.79585 4.25936,6.40699 11.45388,11.91842 18.23552,13.96951 3.77615,1.14208 13.30322,1.13925 17.77535,-0.005 4.97369,-1.27289 11.8699,-4.81863 15.13058,-7.77949 4.83594,-4.39129 7.83329,-9.57481 10.0295,-17.34468 1.0279,-3.6366 1.18471,-5.20086 1.3821,-13.78729 l 0.22265,-9.68528 H 433.4154 413.31026 V 114.81472 96.81149 h 45.57781 45.57781 v 58.5006 58.50061 l -3.4871,0.29476 c -4.49653,0.3801 -20.59977,0.37753 -32.89097,-0.005 l -9.63413,-0.30004 -0.12464,-7.48036 -0.12464,-7.48037 -2.80314,2.25035 c -13.79685,11.07601 -33.20405,16.52382 -52.80178,14.822 z"
     style="fill:#ed6827;fill-opacity:1;stroke:#ffe4c4;stroke-width:0.455778" />
  <path
     id="path923"
     d="M 525.22557,116.63784 V 19.329216 l 50.02165,0.0072 c 58.32859,0.0084 62.90976,0.238865 77.44446,3.895787 23.30972,5.864711 36.78879,17.576957 41.0304,35.652154 1.2146,5.175897 1.12516,17.845787 -0.16804,23.804079 -3.28176,15.120424 -12.17927,25.114644 -25.11384,28.209364 l -3.51865,0.84187 2.27889,0.29663 c 10.14235,1.32018 17.10014,4.67258 20.35966,9.80968 4.01633,6.32984 4.48025,12.18408 4.48025,56.53681 v 35.56366 h -27.27459 -27.2746 l -0.0685,-33.51176 c -0.0727,-35.56811 -0.1757,-37.44383 -2.27954,-41.5271 -1.70139,-3.30216 -4.85875,-5.60207 -9.41846,-6.86067 -3.76992,-1.0406 -19.8756,-1.65509 -33.68527,-1.28521 l -12.57621,0.33684 v 41.42395 41.42395 h -27.11879 -27.1188 z m 91.15562,-21.912419 c 7.7741,-0.550101 14.14794,-2.667122 17.70477,-5.880517 1.04591,-0.94491 2.54614,-3.046102 3.37055,-4.720722 1.42731,-2.899277 1.48569,-3.233166 1.48569,-8.496788 0,-4.963792 -0.11196,-5.714609 -1.19085,-7.985701 -2.20231,-4.635912 -6.60076,-7.779747 -12.71038,-9.08488 -4.83725,-1.033329 -14.88458,-1.399173 -30.1953,-1.099471 l -15.38251,0.301107 v 18.8673 18.867298 l 16.74985,-0.26287 c 9.21241,-0.144582 18.28809,-0.371719 20.16818,-0.504756 z"
     style="fill:#ed6827;fill-opacity:1;stroke:#ffe4c4;stroke-width:0.455778" />
  <path
     id="path925"
     d="m 787.75375,216.1893 c -41.48556,-3.93655 -69.18783,-27.02145 -78.80448,-65.66946 -4.18251,-16.80894 -4.8009,-38.79798 -1.60655,-57.126686 6.76395,-38.810638 31.03798,-64.595498 67.77718,-71.995676 9.39076,-1.89153 13.65772,-2.271192 25.39563,-2.259631 14.4049,0.01419 24.08182,1.349707 35.09491,4.843472 32.34381,10.260666 52.36182,34.785126 58.3229,71.45255 3.40825,20.964601 1.68483,44.844051 -4.5895,63.591331 -1.83615,5.48627 -6.99397,15.93559 -10.27945,20.82528 -16.27599,24.22314 -43.93182,37.01857 -79.46041,36.76366 -4.38687,-0.0315 -9.71947,-0.22265 -11.85023,-0.42484 z m 20.7379,-30.72538 c 1.50407,-0.38297 4.37547,-1.50178 6.38089,-2.48622 12.6564,-6.21292 20.38033,-21.48273 23.29738,-46.05774 0.96517,-8.13122 1.08647,-27.13884 0.22831,-35.77858 -2.91796,-29.377439 -12.48026,-45.567363 -29.4818,-49.915626 -4.85156,-1.240819 -12.85325,-1.243005 -17.69445,-0.0048 -10.76169,2.752377 -18.82721,10.905371 -23.76431,24.022041 -7.76451,20.628397 -8.06599,63.657385 -0.5944,84.836305 6.44727,18.27543 17.90596,27.04943 34.33593,26.2913 2.50678,-0.11568 5.78838,-0.52366 7.29245,-0.90664 z"
     style="fill:#ed6827;fill-opacity:1;stroke:#ffe4c4;stroke-width:0.455778" />
  <path
     id="path927"
     d="m 981.9468,217.10957 c -39.79171,-1.65985 -64.76384,-15.56861 -73.76314,-41.08395 -1.8366,-5.20724 -3.19022,-12.37193 -3.55973,-18.84161 l -0.29833,-5.22337 h 27.64403 27.64404 v 2.07021 c 0,2.85853 1.2308,8.55057 2.55197,11.80197 2.80448,6.90188 8.97905,13.57435 15.40422,16.64639 5.56744,2.66195 9.63539,3.39275 17.10828,3.07349 17.39986,-0.74337 26.55766,-8.06266 26.63266,-21.28605 0.029,-5.08162 -1.055,-7.80511 -4.4634,-11.21568 -4.5383,-4.54115 -11.4931,-7.44602 -26.6966,-11.15065 -23.67441,-5.76873 -30.69665,-7.63004 -38.51325,-10.20828 -18.19627,-6.0019 -26.19926,-10.68125 -33.17131,-19.39522 -11.37047,-14.211339 -14.94988,-33.014241 -9.62608,-50.566479 7.81486,-25.765074 32.91345,-41.041297 71.96719,-43.802719 29.21795,-2.065952 56.74685,4.780051 74.28255,18.472925 8.9237,6.968152 15.3724,16.585186 17.9917,26.831297 1.4592,5.70831 2.3459,15.788905 1.5673,17.818024 -0.2479,0.64602 -3.0427,0.720945 -26.8909,0.720945 h -26.6143 V 80.04346 c 0,-6.234588 -5.3335,-16.597888 -10.4904,-20.38338 -2.897,-2.126599 -7.3873,-4.026447 -12.59187,-5.32763 -5.83689,-1.459264 -15.4373,-1.471387 -20.04346,-0.02531 -3.91623,1.229479 -8.26917,4.037857 -9.88438,6.377084 -2.56697,3.717615 -3.25636,5.964036 -3.25412,10.603692 0.002,3.80191 0.15025,4.61376 1.21705,6.657824 2.3098,4.425724 7.51419,8.070404 15.2917,10.708903 4.45876,1.512622 16.33018,4.607032 31.32358,8.164822 23.4384,5.561685 34.5845,9.701845 45.1436,16.768215 15.9841,10.69698 23.7648,26.68022 22.8671,46.97418 -0.8673,19.61016 -12.1267,34.85548 -33.3715,45.18576 -12.6648,6.1582 -30.4091,10.4618 -46.0336,11.1647 -3.00817,0.13532 -6.80252,0.30992 -8.43193,0.388 -1.62941,0.0781 -6.55181,-0.008 -10.93867,-0.19075 z"
     style="fill:#ed6827;fill-opacity:1;stroke:#ffe4c4;stroke-width:0.455778" />
</svg>
